<svg width="484" height="66" viewBox="0 0 484 66" fill="none" xmlns="http://www.w3.org/2000/svg">
<path d="M27 20.5C27 24.3679 26.1329 27.8202 24.7813 30.27C23.4102 32.7551 21.6775 34 20 34C18.3225 34 16.5898 32.7551 15.2187 30.27C13.8671 27.8202 13 24.3679 13 20.5C13 16.6321 13.8671 13.1798 15.2187 10.73C16.5898 8.24494 18.3225 7 20 7C21.6775 7 23.4102 8.24494 24.7813 10.73C26.1329 13.1798 27 16.6321 27 20.5Z" fill="#EB5757"/>
<path d="M27 20.5C27 24.3679 26.1329 27.8202 24.7813 30.27C23.4102 32.7551 21.6775 34 20 34C18.3225 34 16.5898 32.7551 15.2187 30.27C13.8671 27.8202 13 24.3679 13 20.5C13 16.6321 13.8671 13.1798 15.2187 10.73C16.5898 8.24494 18.3225 7 20 7C21.6775 7 23.4102 8.24494 24.7813 10.73C26.1329 13.1798 27 16.6321 27 20.5Z" stroke="black" stroke-width="2"/>
<path d="M27 20.5C27 24.3679 26.1329 27.8202 24.7813 30.27C23.4102 32.7551 21.6775 34 20 34C18.3225 34 16.5898 32.7551 15.2187 30.27C13.8671 27.8202 13 24.3679 13 20.5C13 16.6321 13.8671 13.1798 15.2187 10.73C16.5898 8.24494 18.3225 7 20 7C21.6775 7 23.4102 8.24494 24.7813 10.73C26.1329 13.1798 27 16.6321 27 20.5Z" stroke="black" stroke-opacity="0.2" stroke-width="2"/>
<path d="M153 39.5C153 43.3679 152.133 46.8202 150.781 49.27C149.41 51.7551 147.678 53 146 53C144.322 53 142.59 51.7551 141.219 49.27C139.867 46.8202 139 43.3679 139 39.5C139 35.6321 139.867 32.1798 141.219 29.73C142.59 27.2449 144.322 26 146 26C147.678 26 149.41 27.2449 150.781 29.73C152.133 32.1798 153 35.6321 153 39.5Z" fill="#F2C94C"/>
<path d="M153 39.5C153 43.3679 152.133 46.8202 150.781 49.27C149.41 51.7551 147.678 53 146 53C144.322 53 142.59 51.7551 141.219 49.27C139.867 46.8202 139 43.3679 139 39.5C139 35.6321 139.867 32.1798 141.219 29.73C142.59 27.2449 144.322 26 146 26C147.678 26 149.41 27.2449 150.781 29.73C152.133 32.1798 153 35.6321 153 39.5Z" stroke="black" stroke-width="2"/>
<path d="M153 39.5C153 43.3679 152.133 46.8202 150.781 49.27C149.41 51.7551 147.678 53 146 53C144.322 53 142.59 51.7551 141.219 49.27C139.867 46.8202 139 43.3679 139 39.5C139 35.6321 139.867 32.1798 141.219 29.73C142.59 27.2449 144.322 26 146 26C147.678 26 149.41 27.2449 150.781 29.73C152.133 32.1798 153 35.6321 153 39.5Z" stroke="black" stroke-opacity="0.2" stroke-width="2"/>
<path d="M107 34.5C107 38.3679 106.133 41.8202 104.781 44.27C103.41 46.7551 101.678 48 100 48C98.3225 48 96.5898 46.7551 95.2187 44.27C93.8671 41.8202 93 38.3679 93 34.5C93 30.6321 93.8671 27.1798 95.2187 24.73C96.5898 22.2449 98.3225 21 100 21C101.678 21 103.41 22.2449 104.781 24.73C106.133 27.1798 107 30.6321 107 34.5Z" fill="#EB5757"/>
<path d="M107 34.5C107 38.3679 106.133 41.8202 104.781 44.27C103.41 46.7551 101.678 48 100 48C98.3225 48 96.5898 46.7551 95.2187 44.27C93.8671 41.8202 93 38.3679 93 34.5C93 30.6321 93.8671 27.1798 95.2187 24.73C96.5898 22.2449 98.3225 21 100 21C101.678 21 103.41 22.2449 104.781 24.73C106.133 27.1798 107 30.6321 107 34.5Z" stroke="black" stroke-width="2"/>
<path d="M107 34.5C107 38.3679 106.133 41.8202 104.781 44.27C103.41 46.7551 101.678 48 100 48C98.3225 48 96.5898 46.7551 95.2187 44.27C93.8671 41.8202 93 38.3679 93 34.5C93 30.6321 93.8671 27.1798 95.2187 24.73C96.5898 22.2449 98.3225 21 100 21C101.678 21 103.41 22.2449 104.781 24.73C106.133 27.1798 107 30.6321 107 34.5Z" stroke="black" stroke-opacity="0.2" stroke-width="2"/>
<path d="M63 27.5C63 31.3679 62.1329 34.8202 60.7813 37.27C59.4102 39.7551 57.6775 41 56 41C54.3225 41 52.5898 39.7551 51.2187 37.27C49.8671 34.8202 49 31.3679 49 27.5C49 23.6321 49.8671 20.1798 51.2187 17.73C52.5898 15.2449 54.3225 14 56 14C57.6775 14 59.4102 15.2449 60.7813 17.73C62.1329 20.1798 63 23.6321 63 27.5Z" fill="#F2C94C"/>
<path d="M63 27.5C63 31.3679 62.1329 34.8202 60.7813 37.27C59.4102 39.7551 57.6775 41 56 41C54.3225 41 52.5898 39.7551 51.2187 37.27C49.8671 34.8202 49 31.3679 49 27.5C49 23.6321 49.8671 20.1798 51.2187 17.73C52.5898 15.2449 54.3225 14 56 14C57.6775 14 59.4102 15.2449 60.7813 17.73C62.1329 20.1798 63 23.6321 63 27.5Z" stroke="black" stroke-width="2"/>
<path d="M63 27.5C63 31.3679 62.1329 34.8202 60.7813 37.27C59.4102 39.7551 57.6775 41 56 41C54.3225 41 52.5898 39.7551 51.2187 37.27C49.8671 34.8202 49 31.3679 49 27.5C49 23.6321 49.8671 20.1798 51.2187 17.73C52.5898 15.2449 54.3225 14 56 14C57.6775 14 59.4102 15.2449 60.7813 17.73C62.1329 20.1798 63 23.6321 63 27.5Z" stroke="black" stroke-opacity="0.2" stroke-width="2"/>
<path d="M397 33.5C397 37.3679 396.133 40.8202 394.781 43.27C393.41 45.7551 391.678 47 390 47C388.322 47 386.59 45.7551 385.219 43.27C383.867 40.8202 383 37.3679 383 33.5C383 29.6321 383.867 26.1798 385.219 23.73C386.59 21.2449 388.322 20 390 20C391.678 20 393.41 21.2449 394.781 23.73C396.133 26.1798 397 29.6321 397 33.5Z" fill="#EB5757"/>
<path d="M397 33.5C397 37.3679 396.133 40.8202 394.781 43.27C393.41 45.7551 391.678 47 390 47C388.322 47 386.59 45.7551 385.219 43.27C383.867 40.8202 383 37.3679 383 33.5C383 29.6321 383.867 26.1798 385.219 23.73C386.59 21.2449 388.322 20 390 20C391.678 20 393.41 21.2449 394.781 23.73C396.133 26.1798 397 29.6321 397 33.5Z" stroke="black" stroke-width="2"/>
<path d="M397 33.5C397 37.3679 396.133 40.8202 394.781 43.27C393.41 45.7551 391.678 47 390 47C388.322 47 386.59 45.7551 385.219 43.27C383.867 40.8202 383 37.3679 383 33.5C383 29.6321 383.867 26.1798 385.219 23.73C386.59 21.2449 388.322 20 390 20C391.678 20 393.41 21.2449 394.781 23.73C396.133 26.1798 397 29.6321 397 33.5Z" stroke="black" stroke-opacity="0.2" stroke-width="2"/>
<path d="M437 26.5C437 30.3679 436.133 33.8202 434.781 36.27C433.41 38.7551 431.678 40 430 40C428.322 40 426.59 38.7551 425.219 36.27C423.867 33.8202 423 30.3679 423 26.5C423 22.6321 423.867 19.1798 425.219 16.73C426.59 14.2449 428.322 13 430 13C431.678 13 433.41 14.2449 434.781 16.73C436.133 19.1798 437 22.6321 437 26.5Z" fill="#F2C94C"/>
<path d="M437 26.5C437 30.3679 436.133 33.8202 434.781 36.27C433.41 38.7551 431.678 40 430 40C428.322 40 426.59 38.7551 425.219 36.27C423.867 33.8202 423 30.3679 423 26.5C423 22.6321 423.867 19.1798 425.219 16.73C426.59 14.2449 428.322 13 430 13C431.678 13 433.41 14.2449 434.781 16.73C436.133 19.1798 437 22.6321 437 26.5Z" stroke="black" stroke-width="2"/>
<path d="M437 26.5C437 30.3679 436.133 33.8202 434.781 36.27C433.41 38.7551 431.678 40 430 40C428.322 40 426.59 38.7551 425.219 36.27C423.867 33.8202 423 30.3679 423 26.5C423 22.6321 423.867 19.1798 425.219 16.73C426.59 14.2449 428.322 13 430 13C431.678 13 433.41 14.2449 434.781 16.73C436.133 19.1798 437 22.6321 437 26.5Z" stroke="black" stroke-opacity="0.2" stroke-width="2"/>
<path d="M351 39.5C351 43.3679 350.133 46.8202 348.781 49.27C347.41 51.7551 345.678 53 344 53C342.322 53 340.59 51.7551 339.219 49.27C337.867 46.8202 337 43.3679 337 39.5C337 35.6321 337.867 32.1798 339.219 29.73C340.59 27.2449 342.322 26 344 26C345.678 26 347.41 27.2449 348.781 29.73C350.133 32.1798 351 35.6321 351 39.5Z" fill="#F2C94C"/>
<path d="M351 39.5C351 43.3679 350.133 46.8202 348.781 49.27C347.41 51.7551 345.678 53 344 53C342.322 53 340.59 51.7551 339.219 49.27C337.867 46.8202 337 43.3679 337 39.5C337 35.6321 337.867 32.1798 339.219 29.73C340.59 27.2449 342.322 26 344 26C345.678 26 347.41 27.2449 348.781 29.73C350.133 32.1798 351 35.6321 351 39.5Z" stroke="black" stroke-width="2"/>
<path d="M351 39.5C351 43.3679 350.133 46.8202 348.781 49.27C347.41 51.7551 345.678 53 344 53C342.322 53 340.59 51.7551 339.219 49.27C337.867 46.8202 337 43.3679 337 39.5C337 35.6321 337.867 32.1798 339.219 29.73C340.59 27.2449 342.322 26 344 26C345.678 26 347.41 27.2449 348.781 29.73C350.133 32.1798 351 35.6321 351 39.5Z" stroke="black" stroke-opacity="0.2" stroke-width="2"/>
<path d="M201 42.5C201 46.3679 200.133 49.8202 198.781 52.27C197.41 54.7551 195.678 56 194 56C192.322 56 190.59 54.7551 189.219 52.27C187.867 49.8202 187 46.3679 187 42.5C187 38.6321 187.867 35.1798 189.219 32.73C190.59 30.2449 192.322 29 194 29C195.678 29 197.41 30.2449 198.781 32.73C200.133 35.1798 201 38.6321 201 42.5Z" fill="#EB5757"/>
<path d="M201 42.5C201 46.3679 200.133 49.8202 198.781 52.27C197.41 54.7551 195.678 56 194 56C192.322 56 190.59 54.7551 189.219 52.27C187.867 49.8202 187 46.3679 187 42.5C187 38.6321 187.867 35.1798 189.219 32.73C190.59 30.2449 192.322 29 194 29C195.678 29 197.41 30.2449 198.781 32.73C200.133 35.1798 201 38.6321 201 42.5Z" stroke="black" stroke-width="2"/>
<path d="M201 42.5C201 46.3679 200.133 49.8202 198.781 52.27C197.41 54.7551 195.678 56 194 56C192.322 56 190.59 54.7551 189.219 52.27C187.867 49.8202 187 46.3679 187 42.5C187 38.6321 187.867 35.1798 189.219 32.73C190.59 30.2449 192.322 29 194 29C195.678 29 197.41 30.2449 198.781 32.73C200.133 35.1798 201 38.6321 201 42.5Z" stroke="black" stroke-opacity="0.2" stroke-width="2"/>
<path d="M301 42.5C301 46.3679 300.133 49.8202 298.781 52.27C297.41 54.7551 295.678 56 294 56C292.322 56 290.59 54.7551 289.219 52.27C287.867 49.8202 287 46.3679 287 42.5C287 38.6321 287.867 35.1798 289.219 32.73C290.59 30.2449 292.322 29 294 29C295.678 29 297.41 30.2449 298.781 32.73C300.133 35.1798 301 38.6321 301 42.5Z" fill="#EB5757"/>
<path d="M301 42.5C301 46.3679 300.133 49.8202 298.781 52.27C297.41 54.7551 295.678 56 294 56C292.322 56 290.59 54.7551 289.219 52.27C287.867 49.8202 287 46.3679 287 42.5C287 38.6321 287.867 35.1798 289.219 32.73C290.59 30.2449 292.322 29 294 29C295.678 29 297.41 30.2449 298.781 32.73C300.133 35.1798 301 38.6321 301 42.5Z" stroke="black" stroke-width="2"/>
<path d="M301 42.5C301 46.3679 300.133 49.8202 298.781 52.27C297.41 54.7551 295.678 56 294 56C292.322 56 290.59 54.7551 289.219 52.27C287.867 49.8202 287 46.3679 287 42.5C287 38.6321 287.867 35.1798 289.219 32.73C290.59 30.2449 292.322 29 294 29C295.678 29 297.41 30.2449 298.781 32.73C300.133 35.1798 301 38.6321 301 42.5Z" stroke="black" stroke-opacity="0.2" stroke-width="2"/>
<path d="M477 19.5C477 23.3679 476.133 26.8202 474.781 29.27C473.41 31.7551 471.678 33 470 33C468.322 33 466.59 31.7551 465.219 29.27C463.867 26.8202 463 23.3679 463 19.5C463 15.6321 463.867 12.1798 465.219 9.73003C466.59 7.24494 468.322 6 470 6C471.678 6 473.41 7.24494 474.781 9.73003C476.133 12.1798 477 15.6321 477 19.5Z" fill="#EB5757"/>
<path d="M477 19.5C477 23.3679 476.133 26.8202 474.781 29.27C473.41 31.7551 471.678 33 470 33C468.322 33 466.59 31.7551 465.219 29.27C463.867 26.8202 463 23.3679 463 19.5C463 15.6321 463.867 12.1798 465.219 9.73003C466.59 7.24494 468.322 6 470 6C471.678 6 473.41 7.24494 474.781 9.73003C476.133 12.1798 477 15.6321 477 19.5Z" stroke="black" stroke-width="2"/>
<path d="M477 19.5C477 23.3679 476.133 26.8202 474.781 29.27C473.41 31.7551 471.678 33 470 33C468.322 33 466.59 31.7551 465.219 29.27C463.867 26.8202 463 23.3679 463 19.5C463 15.6321 463.867 12.1798 465.219 9.73003C466.59 7.24494 468.322 6 470 6C471.678 6 473.41 7.24494 474.781 9.73003C476.133 12.1798 477 15.6321 477 19.5Z" stroke="black" stroke-opacity="0.2" stroke-width="2"/>
<path d="M256 45.5C256 49.3679 255.133 52.8202 253.781 55.27C252.41 57.7551 250.678 59 249 59C247.322 59 245.59 57.7551 244.219 55.27C242.867 52.8202 242 49.3679 242 45.5C242 41.6321 242.867 38.1798 244.219 35.73C245.59 33.2449 247.322 32 249 32C250.678 32 252.41 33.2449 253.781 35.73C255.133 38.1798 256 41.6321 256 45.5Z" fill="#F2C94C"/>
<path d="M256 45.5C256 49.3679 255.133 52.8202 253.781 55.27C252.41 57.7551 250.678 59 249 59C247.322 59 245.59 57.7551 244.219 55.27C242.867 52.8202 242 49.3679 242 45.5C242 41.6321 242.867 38.1798 244.219 35.73C245.59 33.2449 247.322 32 249 32C250.678 32 252.41 33.2449 253.781 35.73C255.133 38.1798 256 41.6321 256 45.5Z" stroke="black" stroke-width="2"/>
<path d="M256 45.5C256 49.3679 255.133 52.8202 253.781 55.27C252.41 57.7551 250.678 59 249 59C247.322 59 245.59 57.7551 244.219 55.27C242.867 52.8202 242 49.3679 242 45.5C242 41.6321 242.867 38.1798 244.219 35.73C245.59 33.2449 247.322 32 249 32C250.678 32 252.41 33.2449 253.781 35.73C255.133 38.1798 256 41.6321 256 45.5Z" stroke="black" stroke-opacity="0.2" stroke-width="2"/>
<g filter="url(#filter0_dd_102_8)">
<path d="M5.06649 3.39853L109.21 22.3789L242.556 30.3536L365.198 22.3303L478.109 3.30887" stroke="#080808" stroke-width="2" stroke-linecap="round"/>
</g>
<defs>
<filter id="filter0_dd_102_8" x="0.0663147" y="2.30872" width="483.042" height="37.0468" filterUnits="userSpaceOnUse" color-interpolation-filters="sRGB">
<feFlood flood-opacity="0" result="BackgroundImageFix"/>
<feColorMatrix in="SourceAlpha" type="matrix" values="0 0 0 0 0 0 0 0 0 0 0 0 0 0 0 0 0 0 127 0" result="hardAlpha"/>
<feOffset dy="4"/>
<feGaussianBlur stdDeviation="2"/>
<feComposite in2="hardAlpha" operator="out"/>
<feColorMatrix type="matrix" values="0 0 0 0 0 0 0 0 0 0 0 0 0 0 0 0 0 0 0.25 0"/>
<feBlend mode="normal" in2="BackgroundImageFix" result="effect1_dropShadow_102_8"/>
<feColorMatrix in="SourceAlpha" type="matrix" values="0 0 0 0 0 0 0 0 0 0 0 0 0 0 0 0 0 0 127 0" result="hardAlpha"/>
<feOffset dy="4"/>
<feGaussianBlur stdDeviation="2"/>
<feComposite in2="hardAlpha" operator="out"/>
<feColorMatrix type="matrix" values="0 0 0 0 0 0 0 0 0 0 0 0 0 0 0 0 0 0 0.25 0"/>
<feBlend mode="normal" in2="effect1_dropShadow_102_8" result="effect2_dropShadow_102_8"/>
<feBlend mode="normal" in="SourceGraphic" in2="effect2_dropShadow_102_8" result="shape"/>
</filter>
</defs>
</svg>
